<?xml version="1.0" encoding="UTF-8"?>
<svg version="1.1" xmlns="http://www.w3.org/2000/svg" width="1024" height="1024">
<path d="M0 0 C0.7340506 0.10323578 1.4681012 0.20647156 2.22439575 0.31283569 C11.03439104 1.57161958 19.74008791 3.12058366 28.43994141 4.99633789 C31.26061293 5.49772815 33.77155488 5.67756368 36.625 5.5625 C36.625 6.2225 36.625 6.8825 36.625 7.5625 C37.21128174 7.6049585 37.79756348 7.64741699 38.40161133 7.69116211 C46.23148824 8.35445107 53.68693993 10.03539695 61.32226562 11.83398438 C67.45279914 13.24941329 67.45279914 13.24941329 73.70703125 13.58984375 C75.15142578 13.57630859 75.15142578 13.57630859 76.625 13.5625 C77.285 14.2225 77.945 14.8825 78.625 15.5625 C80.75690064 16.2665583 80.75690064 16.2665583 83.26171875 16.7890625 C84.22102295 17.01255371 85.18032715 17.23604492 86.16870117 17.46630859 C87.20615479 17.70430176 88.2436084 17.94229492 89.3125 18.1875 C99.19847743 20.53363006 108.70348968 23.47526534 118.22338867 27.02197266 C119.1229126 27.35245605 120.02243652 27.68293945 120.94921875 28.0234375 C121.73385498 28.32040527 122.51849121 28.61737305 123.3269043 28.92333984 C125.85145245 29.62548231 128.01704814 29.67612745 130.625 29.5625 C130.625 30.2225 130.625 30.8825 130.625 31.5625 C131.17542969 31.62566406 131.72585938 31.68882812 132.29296875 31.75390625 C159.30442606 35.73233795 186.30881021 49.61251106 208.4375 65.1640625 C210.47313119 66.74204223 210.47313119 66.74204223 212.625 66.5625 C214.30480665 68.21592226 215.96890757 69.88532577 217.625 71.5625 C219.6702279 73.18152707 221.71944622 74.75936713 223.8125 76.3125 C228.89259045 80.1490454 233.68992995 84.17892182 238.375 88.49609375 C240.3594682 90.31863486 242.38285892 92.07033558 244.4375 93.8125 C254.48894438 102.62777884 263.30244442 112.18830392 271.33398438 122.86132812 C272.5719839 124.49264066 273.83430088 126.10069429 275.109375 127.703125 C314.625 177.78980892 314.625 177.78980892 314.625 197.5625 C315.285 197.8925 315.945 198.2225 316.625 198.5625 C317.3485817 200.57584969 318.05509011 202.59627956 318.69677734 204.63720703 C319.7733164 208.02991902 320.94183168 211.38497813 322.11328125 214.74609375 C335.49657075 253.53853609 343.07083635 293.09900921 342.88574219 334.23974609 C342.87500041 337.0623927 342.88573836 339.8844033 342.8984375 342.70703125 C342.91395046 361.09218018 341.27212483 379.2236021 338.375 397.375 C338.2692868 398.04406372 338.16357361 398.71312744 338.05465698 399.40246582 C334.85309526 419.51642602 329.94276361 439.20356043 323.625 458.5625 C323.2228125 459.80773437 322.820625 461.05296875 322.40625 462.3359375 C309.40923275 499.50423683 287.86091744 534.44791046 262.02783203 563.95556641 C260.72701032 565.44564794 259.43910615 566.94697955 258.15234375 568.44921875 C257.44207031 569.27035156 256.73179687 570.09148438 256 570.9375 C255.38898437 571.64648438 254.77796875 572.35546875 254.1484375 573.0859375 C252.625 574.5625 252.625 574.5625 250.625 574.5625 C250.625 575.2225 250.625 575.8825 250.625 576.5625 C249.965 576.5625 249.305 576.5625 248.625 576.5625 C248.295 577.5525 247.965 578.5425 247.625 579.5625 C246.19921875 581.03515625 246.19921875 581.03515625 244.3125 582.625 C243.58546875 583.23988281 242.8584375 583.85476563 242.109375 584.48828125 C241.28953125 585.17277344 240.4696875 585.85726562 239.625 586.5625 C238.74328125 587.31917969 237.8615625 588.07585938 236.953125 588.85546875 C180.98857617 636.42533526 113.00478356 665.15681356 40.625 675.5625 C38.88404053 675.81459229 38.88404053 675.81459229 37.10791016 676.07177734 C18.98911213 678.55927771 0.94839319 678.846179 -17.3125 678.875 C-18.42545441 678.87867584 -19.53840881 678.88235168 -20.68508911 678.88613892 C-42.3093531 678.92342935 -63.61766063 677.39267712 -85 674.1875 C-86.11488297 674.02309921 -86.11488297 674.02309921 -87.25228882 673.8553772 C-91.65898892 673.20544269 -96.06300067 672.5397385 -100.46490479 671.85809326 C-102.17721883 671.59310726 -103.89008871 671.33171883 -105.60302734 671.07080078 C-150.14948985 664.15459756 -193.52732414 649.04061795 -231.50146484 624.74755859 C-234.44889858 622.88323186 -237.44112308 621.09671185 -240.4375 619.3125 C-241.67718742 618.57048637 -242.91676614 617.8282911 -244.15625 617.0859375 C-246.40883383 615.73766766 -248.66248531 614.39126739 -250.91796875 613.04785156 C-273.01516001 599.86361441 -295.12704163 586.13085634 -314.1171875 568.63671875 C-316.14663463 566.77229587 -318.21534156 564.97475446 -320.3125 563.1875 C-324.78377475 559.31847858 -328.8519911 555.07010019 -332.95703125 550.8203125 C-335.23714236 548.37715629 -335.23714236 548.37715629 -338.375 547.5625 C-338.375 546.5725 -338.375 545.5825 -338.375 544.5625 C-340.05033567 542.45851988 -341.75525874 540.48517643 -343.5625 538.5 C-384.10089768 492.44576172 -403.69746381 432.74349896 -407.5625 372.25 C-407.64653076 370.93974854 -407.73056152 369.62949707 -407.81713867 368.27954102 C-408.35394442 359.02617065 -408.47930128 349.82602145 -408.375 340.5625 C-408.36428467 339.48766357 -408.35356934 338.41282715 -408.3425293 337.30541992 C-408.29909267 334.47274805 -408.21856655 331.64390516 -408.125 328.8125 C-408.11082031 327.86890625 -408.09664062 326.9253125 -408.08203125 325.953125 C-407.84092522 319.1635791 -407.84092522 319.1635791 -405.328125 315.921875 C-404.36132812 315.24898438 -404.36132812 315.24898438 -403.375 314.5625 C-400.9 316.0475 -400.9 316.0475 -398.375 317.5625 C-396.89 302.7125 -396.89 302.7125 -395.375 287.5625 C-397.025 287.2325 -398.675 286.9025 -400.375 286.5625 C-402.375 284.5625 -402.375 284.5625 -402.46484375 281.59375 C-402.36327635 279.23946976 -402.2591093 276.88530023 -402.15234375 274.53125 C-402.26255859 273.06171875 -402.26255859 273.06171875 -402.375 271.5625 C-403.365 270.9025 -404.355 270.2425 -405.375 269.5625 C-412.06399343 254.9697667 -408.57201467 237.17651499 -403.375 222.5625 C-391.41992903 193.58496452 -391.41992903 193.58496452 -384.625 190.1875 C-383.8825 189.98125 -383.14 189.775 -382.375 189.5625 C-384.13 197.6625 -384.13 197.6625 -385.140625 201.375 C-387.68106637 210.73976427 -388.44727594 219.8775236 -388.375 229.5625 C-387.715 229.5625 -387.055 229.5625 -386.375 229.5625 C-386.436875 228.53125 -386.49875 227.5 -386.5625 226.4375 C-386.54352735 215.66103324 -383.02908811 203.66671934 -379.375 193.5625 C-378.715 193.2325 -378.055 192.9025 -377.375 192.5625 C-376.68097905 190.90703718 -376.02263344 189.23665446 -375.375 187.5625 C-373.97965258 184.69621754 -372.48882379 181.88113853 -371 179.0625 C-370.34994995 177.8247583 -370.34994995 177.8247583 -369.68676758 176.56201172 C-366.302684 170.17511599 -362.70608186 163.92887315 -359.0625 157.6875 C-354.66126579 150.1285571 -351.17874336 142.87359639 -348.375 134.5625 C-351.015 139.1825 -353.655 143.8025 -356.375 148.5625 C-357.035 148.5625 -357.695 148.5625 -358.375 148.5625 C-359.08297316 136.26531395 -349.6778088 125.71545157 -342.62597656 116.24707031 C-341.4329049 114.64047499 -340.25890222 113.01977099 -339.0859375 111.3984375 C-334.6236825 105.2963432 -329.87262741 99.63405735 -324.7265625 94.09765625 C-322.64368443 91.85216145 -320.62375091 89.57013597 -318.625 87.25 C-315.67050369 83.86245695 -312.66802988 80.62578361 -309.375 77.5625 C-308.715 77.5625 -308.055 77.5625 -307.375 77.5625 C-307.375 76.9025 -307.375 76.2425 -307.375 75.5625 C-304.42018508 72.81874329 -303.60028092 72.5625 -299.375 72.5625 C-299.375 74.5625 -299.375 74.5625 -301.49609375 76.78515625 C-301.9535498 77.2248877 -302.41100586 77.66461914 -302.88232422 78.11767578 C-305.49947869 80.65093063 -307.95783072 83.33318587 -310.4375 86 C-311.2119043 86.82081055 -311.2119043 86.82081055 -312.00195312 87.65820312 C-315.19961154 91.10026855 -317.87291009 94.58435705 -320.375 98.5625 C-319.97297363 98.12494385 -319.57094727 97.6873877 -319.15673828 97.23657227 C-303.18830261 79.90364402 -286.27795944 65.19231799 -266.375 52.5625 C-265.79733887 52.19447266 -265.21967773 51.82644531 -264.62451172 51.44726562 C-238.07592039 34.67656489 -209.034679 20.87191185 -179.1875 11.1875 C-178.08696289 10.82897949 -176.98642578 10.47045898 -175.85253906 10.10107422 C-174.2955127 9.60631592 -174.2955127 9.60631592 -172.70703125 9.1015625 C-171.77608643 8.80459473 -170.8451416 8.50762695 -169.88598633 8.20166016 C-167.375 7.5625 -167.375 7.5625 -163.375 7.5625 C-163.045 6.9025 -162.715 6.2425 -162.375 5.5625 C-160.31567383 4.92407227 -160.31567383 4.92407227 -157.58203125 4.37890625 C-156.56939209 4.17491211 -155.55675293 3.97091797 -154.51342773 3.76074219 C-153.41587158 3.55094727 -152.31831543 3.34115234 -151.1875 3.125 C-149.50926147 2.79677246 -149.50926147 2.79677246 -147.79711914 2.46191406 C-137.79758354 0.55186663 -127.76039291 -0.92259042 -117.65698242 -2.15649414 C-116.2107483 -2.33458502 -114.76542006 -2.52033793 -113.3215332 -2.71655273 C-76.4652263 -7.67383378 -36.75046583 -5.17292576 0 0 Z M-325.375 102.5625 C-324.375 104.5625 -324.375 104.5625 -324.375 104.5625 Z M-210.375 113.5625 C-215.08015072 120.30654936 -214.53679358 129.22108667 -214.69140625 137.1640625 C-214.71227798 138.09401535 -214.73314972 139.0239682 -214.75465393 139.98210144 C-214.8210549 143.05048273 -214.88001204 146.11893944 -214.9375 149.1875 C-214.95834656 150.24730072 -214.97919312 151.30710144 -215.00067139 152.39901733 C-215.34188155 170.05721898 -215.4813227 187.71368493 -215.5 205.375 C-215.5025882 206.49505432 -215.50517639 207.61510864 -215.50784302 208.769104 C-215.52787336 219.71050178 -215.4722485 230.64185024 -214.9921875 241.57421875 C-214.96182404 242.35602005 -214.93146057 243.13782135 -214.900177 243.9433136 C-214.39363917 253.93556387 -214.39363917 253.93556387 -209.9375 262.5625 C-205.48831611 266.03503377 -201.40030089 265.67854697 -196.00732422 265.61254883 C-194.72625038 265.60313011 -194.72625038 265.60313011 -193.41929626 265.59352112 C-191.56300157 265.57966452 -189.70672152 265.56372741 -187.85046005 265.54596901 C-184.90731757 265.51932877 -181.96425036 265.50145861 -179.02102661 265.48649597 C-170.65189994 265.44375755 -162.28292104 265.39630676 -153.9140625 265.31567383 C-148.79479844 265.26699159 -143.67574385 265.23810819 -138.55627823 265.22192955 C-136.60990457 265.21206335 -134.66355308 265.19490109 -132.71731186 265.17014503 C-129.98430032 265.13617132 -127.25224056 265.12749908 -124.51904297 265.12426758 C-123.72389786 265.10831543 -122.92875275 265.09236328 -122.10951233 265.07592773 C-116.20572301 265.10754501 -111.49866669 266.61216816 -106.375 269.5625 C-102.31991378 273.74430766 -102.24449793 277.83549432 -102.22900391 283.46777344 C-102.22537653 284.55683613 -102.22537653 284.55683613 -102.22167587 285.66790009 C-102.21660006 288.16926935 -102.22086307 290.6705079 -102.2265625 293.171875 C-102.22738453 294.06693504 -102.22820656 294.96199509 -102.2290535 295.88417816 C-102.27086939 325.35352214 -102.98507462 354.81999003 -103.59480506 384.28181529 C-103.71698207 390.19064585 -103.83690412 396.09951888 -103.95547485 402.00842285 C-104.60209138 434.22527791 -105.25950111 466.44183868 -106.01953125 498.65625 C-106.04347458 499.67279411 -106.06741791 500.68933823 -106.09208679 501.73668671 C-106.30538721 510.76937134 -106.52268169 519.80192949 -106.75432205 528.83416367 C-107.12665338 543.37233364 -107.45931207 557.91005723 -107.55078125 572.453125 C-107.56449265 573.61221375 -107.57820404 574.77130249 -107.59233093 575.96551514 C-107.59449112 577.02909241 -107.59665131 578.09266968 -107.59887695 579.18847656 C-107.60683037 580.5722348 -107.60683037 580.5722348 -107.61494446 581.98394775 C-107.2795066 585.5887155 -106.24479721 588.44454739 -104.01953125 591.3046875 C-93.48236974 599.36398917 -68.26140094 595.93002072 -55.5 596.1875 C-54.42250488 596.20962555 -53.34500977 596.2317511 -52.23486328 596.25454712 C-35.60773859 596.57978213 -19.00187451 596.57678009 -2.375 596.25 C-0.89921478 596.2244101 -0.89921478 596.2244101 0.60638428 596.19830322 C10.33570099 596.01983804 20.00677307 595.67262415 29.6875 594.64453125 C30.4196875 594.56869308 31.151875 594.49285492 31.90625 594.41471863 C36.5421669 593.86826348 40.594681 593.08523925 44.375 590.25 C47.39228609 586.17666378 46.71805656 580.8360425 46.57421875 575.99609375 C46.54611697 574.91075049 46.54611697 574.91075049 46.51744747 573.8034811 C46.12787643 558.88472464 45.72269191 543.96710119 45.19506836 529.05249023 C43.73122406 487.56360849 42.68021677 446.0680322 41.69941765 404.56527263 C41.52200863 397.07560843 41.33906336 389.58608664 41.15493953 382.09658492 C40.97322736 374.69619473 40.79516748 367.29572217 40.61979115 359.89517915 C40.51677471 355.54981392 40.41257215 351.20448796 40.30465317 346.85924149 C40.03011778 335.7610092 39.79572029 324.66283734 39.625 313.5625 C39.61147145 312.70671576 39.59794291 311.85093153 39.5840044 310.96921444 C39.50289745 305.67247832 39.4423487 300.37606385 39.40706086 295.07881999 C39.39396943 293.40509288 39.37586882 291.73139641 39.35241675 290.05778241 C39.32146039 287.74256564 39.31007439 285.42803828 39.30374146 283.11264038 C39.29315264 281.79616705 39.28256382 280.47969372 39.27165413 279.12332726 C39.65741464 275.23584296 40.55443119 272.85708403 42.625 269.5625 C48.05450622 265.94282919 54.15625616 266.41290755 60.47265625 266.40478516 C61.341716 266.39970444 62.21077576 266.39462372 63.10617065 266.38938904 C64.98531095 266.37872447 66.86446364 266.3700891 68.74362183 266.36326981 C71.71985407 266.35143383 74.69594427 266.33197088 77.67211914 266.31015015 C86.1312996 266.24867813 94.59046261 266.19445252 103.04980469 266.16113281 C108.23100394 266.14017931 113.41193891 266.10487735 118.59298706 266.06037521 C120.5640858 266.04622829 122.53523123 266.03749573 124.50637817 266.03432083 C127.26364812 266.02940766 130.02021658 266.0062413 132.77734375 265.97900391 C133.58791229 265.98201004 134.39848083 265.98501617 135.23361206 265.9881134 C140.07506505 265.91715336 143.44078798 265.25862756 147.625 262.5625 C162.44809819 239.56114073 152.79395 185.91651306 152.1875 159.4375 C152.1679425 158.56169281 152.14838501 157.68588562 152.12823486 156.78353882 C152.014649 151.84208682 151.87794156 146.90210307 151.70733643 141.96228027 C151.65137747 140.33129861 151.599228 138.70018272 151.55047607 137.06896973 C151.47404395 134.63112442 151.37834098 132.19475039 151.27734375 129.7578125 C151.25700577 129.03439667 151.23666779 128.31098083 151.2157135 127.56564331 C150.94768487 121.91911282 149.856524 116.794024 145.75 112.6875 C141.59272633 110.48659041 137.31582863 110.43665512 132.68817329 110.43107224 C131.49121366 110.42723109 130.29425402 110.42338995 129.06102288 110.4194324 C127.09397497 110.42073213 127.09397497 110.42073213 125.08718872 110.42205811 C123.67717974 110.41947353 122.2671715 110.41646011 120.85716426 110.4130547 C116.98263337 110.40499257 113.10812102 110.40319557 109.23358274 110.40245724 C105.05489687 110.40060536 100.8762206 110.39305745 96.69754028 110.38632202 C87.56129542 110.37274475 78.42505494 110.3667152 69.28880167 110.36231136 C63.58484587 110.35954847 57.88089176 110.35531108 52.1769371 110.35080719 C36.38570576 110.33861636 20.59447577 110.328316 4.80323982 110.3249321 C3.79275331 110.32471253 2.7822668 110.32449297 1.74115949 110.32426675 C0.72825599 110.32404847 -0.2846475 110.32383019 -1.32824504 110.3236053 C-3.38077664 110.32316183 -5.43330824 110.32271527 -7.48583984 110.32226562 C-9.0130297 110.32193348 -9.0130297 110.32193348 -10.57107188 110.32159463 C-27.07508747 110.31764505 -43.57905896 110.30018534 -60.08305751 110.2769061 C-77.02552728 110.25320111 -93.96797491 110.24073067 -110.91046154 110.23956418 C-120.42390224 110.23864705 -129.93728543 110.23288503 -139.4507103 110.21474457 C-147.54986966 110.19935523 -155.64895374 110.19421629 -163.74812494 110.20248267 C-167.8806274 110.20639303 -172.01297818 110.20544072 -176.14546204 110.19142532 C-179.9292157 110.17870988 -183.71270335 110.17986302 -187.49645652 110.19201604 C-189.51216028 110.19490546 -191.52786853 110.18301955 -193.54353607 110.17059398 C-199.87215641 110.20528495 -204.87001267 110.27573233 -210.375 113.5625 Z M-366.375 183.5625 C-374.92102661 200.99689938 -374.92102661 200.99689938 -378.37109375 219.81640625 C-378.375 222.5625 -378.375 222.5625 -379.375 223.5625 C-379.41592937 225.89547433 -379.41741723 228.22955225 -379.375 230.5625 C-376.68531082 227.41193711 -375.61504457 224.63063951 -374.625 220.625 C-374.36203125 219.60535156 -374.0990625 218.58570313 -373.828125 217.53515625 C-373.36888645 214.52239298 -373.57967134 212.48049636 -374.375 209.5625 C-373.715 209.5625 -373.055 209.5625 -372.375 209.5625 C-368.19906174 196.73867267 -368.19906174 196.73867267 -365.375 183.5625 C-365.705 183.5625 -366.035 183.5625 -366.375 183.5625 Z " fill="#FE4D45" transform="translate(539.375,154.4375)"/>
<path d="M0 0 C2.69628591 0.98863817 3.79691111 1.62588888 5.1875 4.1875 C7.55708768 12.38991891 7.24191997 20.91734697 7.25 29.375 C7.25100708 30.10487122 7.25201416 30.83474243 7.25305176 31.58673096 C7.23546648 50.53486778 5.04315516 68.86714355 0.76953125 87.33203125 C-0.13688504 91.02782513 -0.13688504 91.02782513 0 95 C-0.66 95 -1.32 95 -2 95 C-2.09941895 95.60513428 -2.19883789 96.21026855 -2.30126953 96.83374023 C-3.46020801 103.27483522 -5.3555838 109.03556942 -7.875 115.0625 C-8.21402344 115.89587891 -8.55304687 116.72925781 -8.90234375 117.58789062 C-9.91695225 120.06654447 -10.95421552 122.53435533 -12 125 C-12.34232666 125.82040771 -12.68465332 126.64081543 -13.03735352 127.48608398 C-14.70869891 131.39574563 -16.2209492 134.8184273 -19.1875 137.9375 C-20.78649628 139.64984285 -21.94881735 140.89763471 -23 143 C-23.66 143 -24.32 143 -25 143 C-25 143.66 -25 144.32 -25 145 C-27.76762325 147.13502365 -29.21689868 148.07119103 -32.75 147.75 C-35 147 -35 147 -36 146 C-36.70521152 141.16048596 -34.55484722 138.18924793 -32 134.3125 C-23.94611621 121.48002114 -18.26668544 107.5139014 -14 93 C-13.7927832 92.30390625 -13.58556641 91.6078125 -13.37207031 90.890625 C-10.54458502 81.24038777 -8.42508049 71.53983318 -6.75 61.625 C-6.58685303 60.66343994 -6.42370605 59.70187988 -6.25561523 58.71118164 C-4.65369024 48.72536606 -3.9886365 38.75420923 -3.7890625 28.65234375 C-3.76743042 27.5835498 -3.76743042 27.5835498 -3.74536133 26.49316406 C-3.68825078 23.55774782 -3.63302531 20.62254964 -3.59863281 17.68676758 C-3.57108262 15.50816501 -3.52532209 13.33056101 -3.4765625 11.15234375 C-3.45674316 9.87351318 -3.43692383 8.59468262 -3.41650391 7.27709961 C-2.98266075 3.86357286 -2.33194174 2.46321511 0 0 Z " fill="#FE4E46" transform="translate(896,489)"/>
<path d="M0 0 C7.91835543 0.40713475 14.20788876 2.78273151 21.4375 5.9375 C22.58041504 6.42968018 23.72333008 6.92186035 24.90087891 7.42895508 C38.29616944 13.29915013 50.84683741 20.19236073 62.8125 28.6015625 C64.84813119 30.17954223 64.84813119 30.17954223 67 30 C68.67980665 31.65342226 70.34390757 33.32282577 72 35 C74.0452279 36.61902707 76.09444622 38.19686713 78.1875 39.75 C83.26759045 43.5865454 88.06492995 47.61642182 92.75 51.93359375 C94.7344682 53.75613486 96.75785892 55.50783558 98.8125 57.25 C108.86394438 66.06527884 117.67744442 75.62580392 125.70898438 86.29882812 C126.9469839 87.93014066 128.20930088 89.53819429 129.484375 91.140625 C169 141.22730892 169 141.22730892 169 161 C169.66 161.33 170.32 161.66 171 162 C171.73326227 164.05786507 172.45256546 166.12157852 173.10791016 168.20556641 C174.0902787 171.28279418 175.16848954 174.31590193 176.26171875 177.35546875 C176.85629883 179.03092773 176.85629883 179.03092773 177.46289062 180.74023438 C178.28430997 183.05252329 179.11252323 185.36240917 179.94726562 187.66992188 C180.33978516 188.78302734 180.73230469 189.89613281 181.13671875 191.04296875 C181.49467529 192.04352295 181.85263184 193.04407715 182.22143555 194.07495117 C183.04536802 197.17044661 183.14131337 199.81141334 183 203 C180.48795218 200.48795218 180.03147365 198.44082004 178.96875 195.05078125 C178.5754248 193.82117676 178.18209961 192.59157227 177.77685547 191.32470703 C177.56913513 190.67036682 177.36141479 190.01602661 177.1473999 189.34185791 C172.61973383 175.14930873 167.3310682 161.49851951 161 148 C160.66822754 147.28279785 160.33645508 146.5655957 159.99462891 145.82666016 C151.70703304 128.03812666 141.54067503 111.16237101 129.38037109 95.765625 C128.0642571 94.0821909 126.78619622 92.37707935 125.51953125 90.65625 C118.98059355 81.82329816 111.6243829 73.8970881 104 66 C103.09894531 65.05769531 102.19789063 64.11539063 101.26953125 63.14453125 C95.54725216 57.27669339 89.42880657 52.07589336 83 47 C82.17371094 46.33742187 81.34742188 45.67484375 80.49609375 44.9921875 C56.25242111 25.64277742 29.35156563 10.95201522 0 1 C0 0.67 0 0.34 0 0 Z " fill="#FC3931" transform="translate(685,191)"/>
<path d="M0 0 C0.495 0.99 0.495 0.99 1 2 C2.0725 2.0825 3.145 2.165 4.25 2.25 C9.30344808 3.26068962 10.15450538 4.81544909 13 9 C14.2060742 12.61822259 14.14286548 15.92144297 14.1328125 19.6875 C14.13417709 20.47758453 14.13554169 21.26766907 14.13694763 22.08169556 C14.13900109 24.72117063 14.13257298 27.36053595 14.125 30 C14.12378143 30.90739929 14.12256287 31.81479858 14.12130737 32.74969482 C14.09597005 49.04389787 13.86550044 65.33382265 13.5625 81.625 C13.5429425 82.73649414 13.52338501 83.84798828 13.50323486 84.99316406 C13.44589839 88.1752499 13.38229025 91.35714337 13.31640625 94.5390625 C13.29968369 95.48012848 13.28296112 96.42119446 13.26573181 97.39077759 C13.14711251 102.66473719 12.74953674 107.77724932 12 113 C11.67 113 11.34 113 11 113 C11.00666183 111.74798798 11.01332367 110.49597595 11.02018738 109.20602417 C11.08100899 97.40557217 11.12597778 85.60515198 11.15543652 73.80457878 C11.17109068 67.73781678 11.19232473 61.67118135 11.22631836 55.60449219 C11.25892021 49.74953085 11.27685489 43.89469125 11.28463173 38.03964615 C11.29017371 35.80613412 11.30099581 33.57262874 11.31719017 31.33916855 C11.33897502 28.21017827 11.34196643 25.08169067 11.34057617 21.95263672 C11.351362 21.02978378 11.36214783 20.10693085 11.3732605 19.15611267 C11.3487504 14.05630617 10.97335361 10.35499354 8 6 C4.24089097 4.74696366 0.71744191 4.83129205 -3.19995117 4.81054688 C-4.03609955 4.80225357 -4.87224792 4.79396027 -5.73373413 4.78541565 C-7.55070795 4.76801406 -9.36770422 4.75284753 -11.18471336 4.73963928 C-14.0646329 4.71859167 -16.94444128 4.69156658 -19.82429504 4.66296387 C-25.94532032 4.60325963 -32.06639821 4.55116495 -38.1875 4.5 C-45.26437142 4.44066012 -52.34118897 4.37817915 -59.41796303 4.30812073 C-62.24730824 4.28167676 -65.07665919 4.26077815 -67.90605164 4.2401123 C-69.65506238 4.22349385 -71.40407073 4.20662068 -73.15307617 4.18945312 C-73.93311508 4.18526871 -74.71315399 4.18108429 -75.51683044 4.17677307 C-80.41824096 4.12141085 -85.16497259 3.84473134 -90 3 C-90.33 2.34 -90.66 1.68 -91 1 C-45.955 0.505 -45.955 0.505 0 0 Z " fill="#FE4139" transform="translate(424,419)"/>
<path d="M0 0 C2.90397608 2.72247758 5.00631264 5.37230578 7 8.8125 C7.51949219 9.69808594 8.03898438 10.58367188 8.57421875 11.49609375 C9.68126975 13.44025729 10.75399254 15.40398611 11.8125 17.375 C14.64173473 22.34935122 18.23377713 26.81523464 21.72167969 31.33789062 C23.00362279 33.00471046 24.27151339 34.68159385 25.5390625 36.359375 C32.47075956 45.44688158 40.06600763 53.78172005 48 62 C48.4842041 62.50611816 48.9684082 63.01223633 49.46728516 63.53369141 C54.20829997 68.47825605 58.92621617 72.98541178 64.6015625 76.84375 C65.29378906 77.41609375 65.29378906 77.41609375 66 78 C66 78.66 66 79.32 66 80 C66.87108398 80.40835083 66.87108398 80.40835083 67.75976562 80.82495117 C69.98098485 81.99002617 71.85027091 83.28261303 73.84375 84.80078125 C74.58415527 85.35870361 75.32456055 85.91662598 76.08740234 86.49145508 C76.88355957 87.0923999 77.6797168 87.69334473 78.5 88.3125 C90.79543877 97.45366686 103.47019834 105.8157908 116.7109375 113.5234375 C117.37495575 113.9101915 118.038974 114.2969455 118.72311401 114.69541931 C122.04227808 116.62482018 125.36815023 118.54130227 128.70458984 120.44067383 C129.92287708 121.14139443 131.14113998 121.84215736 132.359375 122.54296875 C133.99084473 123.4714563 133.99084473 123.4714563 135.65527344 124.41870117 C136.4290332 124.94052979 137.20279297 125.4623584 138 126 C138 126.66 138 127.32 138 128 C135.04043434 127.37717155 132.73350455 126.43251705 130.12109375 124.91796875 C129.37448486 124.48677734 128.62787598 124.05558594 127.85864258 123.61132812 C126.660177 122.9065332 126.660177 122.9065332 125.4375 122.1875 C124.18199341 121.45370117 124.18199341 121.45370117 122.90112305 120.70507812 C100.62758461 107.59785334 78.32547155 93.63976318 59.2578125 76.07421875 C57.22836537 74.20979587 55.15965844 72.41225446 53.0625 70.625 C48.59122525 66.75597858 44.5230089 62.50760019 40.41796875 58.2578125 C38.13785764 55.81465629 38.13785764 55.81465629 35 55 C35 54.01 35 53.02 35 52 C33.32466965 49.89602657 31.61984944 47.9225712 29.8125 45.9375 C20.13747844 34.95555274 11.66335923 23.14365897 4.1875 10.5625 C3.76065918 9.84666748 3.33381836 9.13083496 2.89404297 8.39331055 C0 3.38308215 0 3.38308215 0 0 Z " fill="#FD3A31" transform="translate(166,647)"/>
<path d="M0 0 C1.34730698 -0.00021904 1.34730698 -0.00021904 2.72183228 -0.0004425 C5.67607072 0.00025141 8.63024529 0.00801934 11.58447266 0.01586914 C13.63855963 0.01773517 15.69264704 0.0191582 17.74673462 0.02015686 C23.14224485 0.02396745 28.53772798 0.03378527 33.93322754 0.04486084 C39.44327427 0.05510633 44.95332539 0.0596612 50.46337891 0.06469727 C61.2667762 0.07540886 72.07015342 0.09246775 82.87353516 0.11352539 C78.58970122 4.39735933 69.87920502 3.26343065 64.05834961 3.27124023 C62.79580353 3.27886131 62.79580353 3.27886131 61.50775146 3.28663635 C59.69466984 3.29727108 57.88157565 3.3059178 56.06847572 3.31275558 C53.19737184 3.32462597 50.32641294 3.34409499 47.45536804 3.36587524 C39.29752405 3.42724837 31.13970068 3.48163065 22.98168945 3.51489258 C17.9797317 3.53582899 12.97804863 3.57111018 7.97624779 3.61565018 C6.07410089 3.62980304 4.17190553 3.638531 2.26970863 3.64170456 C-0.38697546 3.64661016 -3.04292748 3.66975438 -5.69946289 3.69702148 C-6.87391716 3.69251228 -6.87391716 3.69251228 -8.07209778 3.68791199 C-12.59840846 3.75694445 -15.47872477 4.38884072 -19.12646484 7.11352539 C-18.81396484 5.23852539 -18.81396484 5.23852539 -18.12646484 3.11352539 C-12.61438776 -0.56119266 -6.40720507 -0.02746604 0 0 Z " fill="#FE433C" transform="translate(600.12646484375,419.886474609375)"/>
<path d="M0 0 C0.33 0 0.66 0 1 0 C1.35007415 10.91617881 1.6822009 21.83283652 2 32.75 C2.0237545 33.56567822 2.047509 34.38135643 2.07198334 35.22175217 C3.01478833 67.82356254 3.24568137 100.38537984 3 133 C2.67 133 2.34 133 2 133 C0.94424641 128.63253099 0.7923662 124.33518162 0.70288086 119.86547852 C0.68322769 119.05771973 0.66357452 118.24996094 0.64332581 117.41772461 C0.57937174 114.73820139 0.52192252 112.05858413 0.46484375 109.37890625 C0.42169566 107.48167836 0.37827927 105.58445656 0.33460999 103.6872406 C0.24355031 99.68665276 0.15568911 95.68601057 0.07006836 91.68530273 C-0.03727597 86.6802118 -0.15220838 81.67533231 -0.26947975 76.67046547 C-0.7314145 56.83174177 -1.08929524 36.99686992 -1.12109375 17.15234375 C-1.12379839 16.32640779 -1.12650303 15.50047184 -1.12928963 14.64950752 C-1.13541729 12.35735879 -1.13445367 10.06534443 -1.13061523 7.77319336 C-1.1298851 6.48279648 -1.12915497 5.1923996 -1.12840271 3.86289978 C-1 1 -1 1 0 0 Z " fill="#FE3F38" transform="translate(579,429)"/>
<path d="M0 0 C0 2 0 2 -2.1015625 4.18359375 C-2.78847168 4.84270752 -2.78847168 4.84270752 -3.48925781 5.51513672 C-5.09280632 7.09121655 -6.58943034 8.73229666 -8.0859375 10.41015625 C-8.62476563 11.00763672 -9.16359375 11.60511719 -9.71875 12.22070312 C-10.8213802 13.44685911 -11.91778042 14.67864668 -13.0078125 15.91601562 C-15.69250045 18.87236843 -18.11695359 21.23926507 -21.65234375 23.13671875 C-25.0828495 25.04611343 -26.79930938 26.68015018 -29.1875 29.75 C-29.93515625 30.70132812 -30.6828125 31.65265625 -31.453125 32.6328125 C-33.37490961 35.15766115 -35.27370777 37.69955271 -37.171875 40.2421875 C-37.98362183 41.32935059 -37.98362183 41.32935059 -38.81176758 42.43847656 C-39.88481477 43.88166784 -40.95248781 45.32887249 -42.0144043 46.78027344 C-42.50336182 47.44317383 -42.99231934 48.10607422 -43.49609375 48.7890625 C-43.93107178 49.38412598 -44.3660498 49.97918945 -44.81420898 50.59228516 C-46 52 -46 52 -48 53 C-47.38388452 49.82130378 -46.32225538 47.7200525 -44.4453125 45.09375 C-43.91824707 44.35560059 -43.39118164 43.61745117 -42.84814453 42.85693359 C-42.27950684 42.07914551 -41.71086914 41.30135742 -41.125 40.5 C-40.54218262 39.69771973 -39.95936523 38.89543945 -39.35888672 38.06884766 C-34.32892022 31.24783573 -28.84960371 25.12189666 -23 19 C-21.71994004 17.54975865 -20.44795485 16.09231287 -19.1875 14.625 C-16.25556233 11.25609085 -13.27199415 8.04371549 -10 5 C-9.34 5 -8.68 5 -8 5 C-8 4.34 -8 3.68 -8 3 C-5.04518508 0.25624329 -4.22528092 0 0 0 Z " fill="#FB3E36" transform="translate(240,227)"/>
<path d="M0 0 C1 3 1 3 -0.51953125 6.265625 C-1.27145981 7.60080625 -2.03677141 8.92850437 -2.8125 10.25 C-3.22048828 10.95801758 -3.62847656 11.66603516 -4.04882812 12.39550781 C-13.68091185 28.89613221 -25.02281422 44.0301013 -37.59716797 58.39306641 C-38.89798968 59.88314794 -40.18589385 61.38447955 -41.47265625 62.88671875 C-42.53806641 64.11841797 -42.53806641 64.11841797 -43.625 65.375 C-44.54152344 66.43847656 -44.54152344 66.43847656 -45.4765625 67.5234375 C-47 69 -47 69 -49 69 C-49 69.66 -49 70.32 -49 71 C-49.66 71 -50.32 71 -51 71 C-51.33 71.99 -51.66 72.98 -52 74 C-53.7421875 75.859375 -53.7421875 75.859375 -55.875 77.75 C-56.57367187 78.38421875 -57.27234375 79.0184375 -57.9921875 79.671875 C-58.65476562 80.11015625 -59.31734375 80.5484375 -60 81 C-60.99 80.67 -61.98 80.34 -63 80 C-61.6696875 78.9171875 -61.6696875 78.9171875 -60.3125 77.8125 C-57.37006568 75.35590948 -54.68124443 72.74359895 -52 70 C-50.97712891 68.99259766 -50.97712891 68.99259766 -49.93359375 67.96484375 C-45.05585967 63.15313653 -40.41602331 58.23738432 -36 53 C-35.03900391 51.89011719 -35.03900391 51.89011719 -34.05859375 50.7578125 C-23.65296388 38.45502359 -14.3808022 25.06297562 -6.62109375 10.9453125 C-4.55794751 7.19684922 -2.30583138 3.60286154 0 0 Z " fill="#FC3A31" transform="translate(839,660)"/>
<path d="M0 0 C0.33 0 0.66 0 1 0 C1.15493539 11.29319772 1.30309421 22.58646309 1.4429636 33.87985802 C1.50813869 39.12568351 1.57551476 44.37146018 1.64819336 49.6171875 C1.71844712 54.69407013 1.78256364 59.77099877 1.84269524 64.84801102 C1.86648785 66.77017582 1.89237024 68.69231612 1.92053413 70.61442184 C2.09726235 82.79253254 1.84914241 94.84869374 1 107 C0.67 107 0.34 107 0 107 C-1.31275438 99.0054953 -1.14502333 90.98675418 -1.1328125 82.91015625 C-1.13348829 81.32238246 -1.13446059 79.73460877 -1.13571167 78.14683533 C-1.13718299 74.81573503 -1.13505718 71.48466161 -1.13037109 68.15356445 C-1.12475232 63.96286129 -1.12799257 59.77222276 -1.13382339 55.58152199 C-1.15556862 37.02942033 -0.98431455 18.53156938 0 0 Z " fill="#FE332C" transform="translate(323,295)"/>
<path d="M0 0 C0.66 0 1.32 0 2 0 C0.45316158 4.03482551 -2.33241744 6.31919632 -5.625 8.9375 C-6.25470703 9.43838135 -6.88441406 9.9392627 -7.53320312 10.45532227 C-24.06816175 23.22435817 -42.15500034 34.4691979 -60.25 44.875 C-61.18908203 45.42212646 -62.12816406 45.96925293 -63.09570312 46.53295898 C-63.95615234 47.01450439 -64.81660156 47.4960498 -65.703125 47.9921875 C-66.81155762 48.61649658 -66.81155762 48.61649658 -67.94238281 49.25341797 C-70.38809892 50.1408171 -71.58900705 49.8709763 -74 49 C-73.28980713 48.60731934 -72.57961426 48.21463867 -71.84790039 47.81005859 C-68.5838792 46.00235022 -65.32318366 44.18872108 -62.0625 42.375 C-60.94552734 41.75753906 -59.82855469 41.14007812 -58.67773438 40.50390625 C-52.2502077 36.9225864 -46.06912347 33.1551069 -40 29 C-38.27524105 27.90966288 -36.54680001 26.82509625 -34.8125 25.75 C-26.78903154 20.66249346 -19.07197632 15.11021235 -11.51171875 9.359375 C-10.96185303 8.94155762 -10.4119873 8.52374023 -9.84545898 8.09326172 C-8.33537359 6.94018963 -6.83155258 5.77892699 -5.328125 4.6171875 C-3 3 -3 3 -1 3 C-0.67 2.01 -0.34 1.02 0 0 Z " fill="#FD3930" transform="translate(773,742)"/>
<path d="M0 0 C0.33 0 0.66 0 1 0 C1.04709897 8.77365199 1.08225114 17.54725811 1.10362434 26.32101059 C1.11390115 30.39846119 1.12775034 34.4758231 1.15087891 38.55322266 C1.26281646 58.81018347 0.85265627 78.80975134 -1 99 C-1.33 99 -1.66 99 -2 99 C-2.33339676 75.91868584 -1.75040868 52.87911647 -1 29.8125 C-0.97608437 29.07716034 -0.95216873 28.34182068 -0.92752838 27.584198 C-0.62761566 18.38914742 -0.31816745 9.19443826 0 0 Z " fill="#FE3730" transform="translate(432,640)"/>
<path d="M0 0 C1.5169197 0.04840887 3.03384679 0.09658686 4.55078125 0.14453125 C8.20060933 0.26037619 11.85032932 0.37928605 15.5 0.5 C15.5 0.83 15.5 1.16 15.5 1.5 C7.68920085 2.7617348 -0.12622876 2.66399245 -8.015625 2.66796875 C-9.5191857 2.67118668 -11.02274609 2.67455115 -12.52630615 2.67805481 C-15.66305264 2.68401488 -18.79977169 2.68589766 -21.93652344 2.68530273 C-25.95364603 2.68520065 -29.97059371 2.69891397 -33.98767471 2.71607494 C-37.0863323 2.72718868 -40.18494727 2.72922223 -43.28362274 2.72869301 C-44.76518106 2.72987171 -46.24674053 2.73428734 -47.72827911 2.74202538 C-49.79586686 2.75182377 -51.86307012 2.74894934 -53.93066406 2.74291992 C-55.10566467 2.74434494 -56.28066528 2.74576996 -57.49127197 2.74723816 C-60.39323078 2.50877362 -62.05169059 2.01699568 -64.5 0.5 C-60.37820862 0.35401342 -56.25630644 0.21182627 -52.13427734 0.07275391 C-50.74003803 0.02522665 -49.34583016 -0.02323511 -47.95166016 -0.07275391 C-31.94799039 -0.63976751 -16.00147735 -0.53065215 0 0 Z " fill="#FE352E" transform="translate(536.5,750.5)"/>
<path d="M0 0 C1.34687277 4.04061831 -0.0351498 6.70798407 -1.375 10.5625 C-3.24033859 16.16167951 -4.58188892 21.34112366 -4.859375 27.27734375 C-5 29 -5 29 -6 30 C-6.36760731 32.32817964 -6.70241581 34.6618385 -7 37 C-5.515 36.505 -5.515 36.505 -4 36 C-4.66 37.32 -5.32 38.64 -6 40 C-7.32 39.67 -8.64 39.34 -10 39 C-9.85761163 36.95809019 -9.71092972 34.91647955 -9.5625 32.875 C-9.48128906 31.73804688 -9.40007812 30.60109375 -9.31640625 29.4296875 C-9.02269035 26.2459522 -8.56875687 23.14489093 -8 20 C-8.99 20.33 -9.98 20.66 -11 21 C-11.21192221 15.80790596 -10.5912689 11.873261 -9 7 C-8.34 7 -7.68 7 -7 7 C-6.67 8.98 -6.34 10.96 -6 13 C-5.73445312 12.14535156 -5.46890625 11.29070312 -5.1953125 10.41015625 C-4.66550781 8.75306641 -4.66550781 8.75306641 -4.125 7.0625 C-3.77695313 5.96035156 -3.42890625 4.85820312 -3.0703125 3.72265625 C-2 1 -2 1 0 0 Z " fill="#FE4138" transform="translate(167,348)"/>
<path d="M0 0 C1.32 1.32 2.64 2.64 4 4 C3.67 4.66 3.34 5.32 3 6 C1.68 5.01 0.36 4.02 -1 3 C-1.33 23.13 -1.66 43.26 -2 64 C-4.33291103 61.66708897 -4.27701825 61.1568556 -4.4140625 57.9921875 C-4.45289551 57.1789502 -4.49172852 56.36571289 -4.53173828 55.52783203 C-4.56251465 54.65239746 -4.59329102 53.77696289 -4.625 52.875 C-4.66222168 51.96991699 -4.69944336 51.06483398 -4.73779297 50.13232422 C-5.04536619 42.0829772 -5.16268339 34.05455857 -5 26 C-4.98743164 25.08766602 -4.97486328 24.17533203 -4.96191406 23.23535156 C-4.91376445 20.23926635 -4.83543868 17.24523591 -4.75 14.25 C-4.73598145 13.29625488 -4.72196289 12.34250977 -4.70751953 11.35986328 C-4.46346239 4.59790186 -4.46346239 4.59790186 -1.953125 1.359375 C-1.30859375 0.91078125 -0.6640625 0.4621875 0 0 Z " fill="#FE3C33" transform="translate(136,469)"/>
<path d="M0 0 C0.33 0 0.66 0 1 0 C0.45803258 5.54284864 -0.58626479 10.50483048 -2.5 15.75 C-2.88877319 16.83148315 -2.88877319 16.83148315 -3.28540039 17.93481445 C-6.69152098 27.17323877 -10.8093848 36.09656303 -15 45 C-15.34272949 45.73605469 -15.68545898 46.47210937 -16.03857422 47.23046875 C-16.97077234 49.22284083 -17.91852246 51.20668935 -18.875 53.1875 C-19.40867187 54.29480469 -19.94234375 55.40210938 -20.4921875 56.54296875 C-22 59 -22 59 -25 60 C-23.13049463 55.05844256 -20.83342313 50.32813675 -18.5625 45.5625 C-18.16740234 44.72912109 -17.77230469 43.89574219 -17.36523438 43.03710938 C-15.71306173 39.55957462 -14.05116322 36.09940617 -12.2890625 32.67578125 C-11.14199547 30.29474818 -10.38789435 28.19214404 -9.8125 25.625 C-9.544375 24.42875 -9.27625 23.2325 -9 22 C-8.34 22 -7.68 22 -7 22 C-6.82984375 20.75669922 -6.82984375 20.75669922 -6.65625 19.48828125 C-5.91989126 15.5741839 -4.78443027 11.9490458 -3.5 8.1875 C-3.27441406 7.50751953 -3.04882812 6.82753906 -2.81640625 6.12695312 C-1.13375235 1.13375235 -1.13375235 1.13375235 0 0 Z " fill="#FD3C33" transform="translate(865,599)"/>
<path d="M0 0 C4.26314893 6.3947234 3.24124262 13.72073842 3.25 21.125 C3.25167175 21.85887939 3.25334351 22.59275879 3.25506592 23.34887695 C3.25644549 33.47053458 2.83922529 43.43863688 1.625 53.5 C1.49899414 54.55461426 1.37298828 55.60922852 1.24316406 56.69580078 C0.51945927 62.05139671 0.51945927 62.05139671 0 64 C-0.99 64.495 -0.99 64.495 -2 65 C-1.85692242 62.0623434 -1.71058589 59.12490513 -1.5625 56.1875 C-1.52318359 55.37345703 -1.48386719 54.55941406 -1.44335938 53.72070312 C-1.22623737 49.46177146 -0.9265858 45.2399576 -0.46875 41 C0.29144024 32.95589548 0.10594153 24.88360859 0.0625 16.8125 C0.05747294 15.17643367 0.05291217 13.54036583 0.04882812 11.90429688 C0.03792277 7.93616014 0.0207253 3.96809709 0 0 Z " fill="#FD3C34" transform="translate(900,497)"/>
<path d="M0 0 C5.11714216 1.73322557 9.44295991 4.66545206 14 7.5 C27.38067516 15.67859382 41.39627379 22.31194744 56 28 C56 28.33 56 28.66 56 29 C49.72459734 28.50195217 44.82225004 27.00607452 39.125 24.375 C38.28727051 23.99255127 37.44954102 23.61010254 36.58642578 23.21606445 C28.81825533 19.56554494 21.3283463 15.4333779 13.875 11.1875 C12.73047363 10.54151855 11.58594727 9.89553711 10.40673828 9.22998047 C9.34181152 8.6113916 8.27688477 7.99280273 7.1796875 7.35546875 C6.22819824 6.80528076 5.27670898 6.25509277 4.29638672 5.68823242 C1.9137404 3.93658462 1.03222241 2.73259457 0 0 Z " fill="#FD3931" transform="translate(305,775)"/>
<path d="M0 0 C1.11375 1.175625 1.11375 1.175625 2.25 2.375 C6.94558591 6.85715018 11.0237287 7.48426018 17.375 8.0625 C18.24535889 8.14483887 19.11571777 8.22717773 20.01245117 8.31201172 C35.95234545 9.65395497 52.01338166 9.69568149 68 10 C68 10.33 68 10.66 68 11 C36.7799171 12.28827383 36.7799171 12.28827383 25 12 C23.74832031 11.97164062 22.49664062 11.94328125 21.20703125 11.9140625 C13.243182 11.56160553 6.80080691 10.91958212 1 4.9375 C0 3 0 3 0 0 Z " fill="#FE433A" transform="translate(431,740)"/>
<path d="M0 0 C0.66 0 1.32 0 2 0 C1.90492598 5.38559517 1.79854004 10.77081904 1.68261719 16.15600586 C1.64483741 17.97984039 1.6099063 19.80373663 1.578125 21.62768555 C1.41260742 31.01822203 1.12825625 40.35167013 0.0859375 49.69140625 C0.0098526 50.40417221 -0.0662323 51.11693817 -0.1446228 51.8513031 C-0.75128631 56.75128631 -0.75128631 56.75128631 -3 59 C-3.02803889 57.27093516 -3.04684082 55.54172126 -3.0625 53.8125 C-3.07410156 52.84957031 -3.08570313 51.88664063 -3.09765625 50.89453125 C-3.01551217 47.61862516 -2.80193908 44.41539211 -2.52734375 41.15234375 C-1.80975395 32.26605235 -1.65106875 23.37019987 -1.44775391 14.46044922 C-1.39631654 12.25996819 -1.3390982 10.05969536 -1.28125 7.859375 C-1.25095703 6.56483398 -1.22066406 5.27029297 -1.18945312 3.93652344 C-1 1 -1 1 0 0 Z " fill="#FE3B32" transform="translate(894,492)"/>
<path d="M0 0 C-1 3 -1 3 -2.52441406 4.03979492 C-3.18151367 4.35021729 -3.83861328 4.66063965 -4.515625 4.98046875 C-5.26223389 5.33625 -6.00884277 5.69203125 -6.77807617 6.05859375 C-8.00167847 6.61740234 -8.00167847 6.61740234 -9.25 7.1875 C-10.08958252 7.57679688 -10.92916504 7.96609375 -11.79418945 8.3671875 C-18.17941478 11.27860999 -24.64617327 13.9602405 -31.1875 16.5 C-32.04698242 16.83797607 -32.90646484 17.17595215 -33.79199219 17.52416992 C-38.90847837 19.45658744 -43.54599185 20.54707199 -49 21 C-46.70570868 18.70570868 -45.01227827 18.11796318 -41.9765625 17.01171875 C-40.96086182 16.63756836 -39.94516113 16.26341797 -38.89868164 15.87792969 C-37.8183667 15.48508789 -36.73805176 15.09224609 -35.625 14.6875 C-33.42785823 13.87512232 -31.2312366 13.0613364 -29.03515625 12.24609375 C-27.98473145 11.85663574 -26.93430664 11.46717773 -25.85205078 11.06591797 C-18.17406662 8.19636833 -10.80134815 5.11985009 -3.7421875 0.91796875 C-2 0 -2 0 0 0 Z " fill="#FD3A32" transform="translate(698,792)"/>
<path d="M0 0 C1.32 0 2.64 0 4 0 C4 3.15416317 3.61748039 4.0431921 2.1015625 6.6875 C1.70453125 7.38617188 1.3075 8.08484375 0.8984375 8.8046875 C0.47820312 9.52914063 0.05796875 10.25359375 -0.375 11 C-0.7875 11.72445313 -1.2 12.44890625 -1.625 13.1953125 C-3.3420071 16.19730556 -5.08031863 19.12047794 -7 22 C-7.66 22 -8.32 22 -9 22 C-9.38786962 16.34715936 -8.41995881 13.08723392 -5.625 8.1875 C-4.68527344 6.50720703 -4.68527344 6.50720703 -3.7265625 4.79296875 C-2 2 -2 2 0 0 Z " fill="#FD4239" transform="translate(190,281)"/>
<path d="M0 0 C9.08090545 -0.68968902 17.4648748 0.81410331 26.34423828 2.57714844 C27.26060059 2.75793945 28.17696289 2.93873047 29.12109375 3.125 C30.34977173 3.37636719 30.34977173 3.37636719 31.60327148 3.6328125 C34.10501885 4.01608927 36.47306261 4.06295562 39 4 C39 4.66 39 5.32 39 6 C42.3 6.33 45.6 6.66 49 7 C49 7.66 49 8.32 49 9 C47.14523183 8.88426734 45.29118726 8.75691885 43.4375 8.625 C42.40496094 8.55539063 41.37242187 8.48578125 40.30859375 8.4140625 C37.43120664 8.05396447 34.91887838 7.38979929 32.15795898 6.54833984 C25.98975649 4.98099254 19.54688614 4.38398401 13.25195312 3.5 C12.12337891 3.335 10.99480469 3.17 9.83203125 3 C8.80827393 2.855625 7.7845166 2.71125 6.72973633 2.5625 C4.16052695 2.0330788 2.26348126 1.29747247 0 0 Z " fill="#FE3D35" transform="translate(537,156)"/>
<path d="M0 0 C0.66 0 1.32 0 2 0 C2.98219908 4.20763149 3.96022284 8.41622285 4.9375 12.625 C5.21529297 13.81480469 5.49308594 15.00460937 5.77929688 16.23046875 C6.04677734 17.38417969 6.31425781 18.53789062 6.58984375 19.7265625 C6.83597412 20.78439941 7.08210449 21.84223633 7.33569336 22.93212891 C8.42863554 27.97950538 9.12552977 32.70655868 9.0625 37.875 C9.05347656 38.84179688 9.04445313 39.80859375 9.03515625 40.8046875 C9.02355469 41.52914062 9.01195312 42.25359375 9 43 C6.81630527 39.7244579 6.69418599 37.55044305 6.33984375 33.71484375 C5.53461248 27.28224912 3.78030301 20.97291915 2.13671875 14.7109375 C1.86472656 13.67195313 1.59273437 12.63296875 1.3125 11.5625 C1.06113281 10.63566406 0.80976562 9.70882813 0.55078125 8.75390625 C-0.04535164 5.77324178 -0.09377081 3.03192273 0 0 Z " fill="#FD3931" transform="translate(868,395)"/>
<path d="M0 0 C-0.28482368 1.41805831 -0.57818144 2.83440379 -0.875 4.25 C-1.03742188 5.03890625 -1.19984375 5.8278125 -1.3671875 6.640625 C-1.99150075 8.96831144 -2.84838542 10.89031952 -4 13 C-4.66 11.68 -5.32 10.36 -6 9 C-9.3 15.27 -12.6 21.54 -16 28 C-17.08141903 23.6743239 -17.02402983 23.30013865 -15.0859375 19.62890625 C-14.65410156 18.80712891 -14.22226563 17.98535156 -13.77734375 17.13867188 C-13.31457031 16.28853516 -12.85179687 15.43839844 -12.375 14.5625 C-11.93542969 13.71623047 -11.49585938 12.86996094 -11.04296875 11.99804688 C-4.63524129 0 -4.63524129 0 0 0 Z " fill="#FD3930" transform="translate(157,344)"/>
<path d="M0 0 C0 0.66 0 1.32 0 2 C-3.54100697 2.815393 -7.08291677 3.62679621 -10.625 4.4375 C-11.62402344 4.66759766 -12.62304688 4.89769531 -13.65234375 5.13476562 C-20.62745133 6.72841603 -27.18510836 8.14238768 -34.375 8.0625 C-35.96441406 8.04896484 -35.96441406 8.04896484 -37.5859375 8.03515625 C-38.38257813 8.02355469 -39.17921875 8.01195312 -40 8 C-36.8185062 6.19142322 -33.99632148 5.53076295 -30.38671875 5 C-29.30326172 4.835 -28.21980469 4.67 -27.10351562 4.5 C-25.41258789 4.2525 -25.41258789 4.2525 -23.6875 4 C-15.23689743 2.8477744 -15.23689743 2.8477744 -6.95703125 0.875 C-4 0 -4 0 0 0 Z " fill="#FE3C33" transform="translate(622,820)"/>
<path d="M0 0 C7.35202163 0.81587272 14.59990078 2.11018137 21.875 3.4375 C23.10992187 3.65470703 24.34484375 3.87191406 25.6171875 4.09570312 C27.380625 4.41764648 27.380625 4.41764648 29.1796875 4.74609375 C30.24944824 4.93872803 31.31920898 5.1313623 32.42138672 5.32983398 C35 6 35 6 37 8 C30.35068115 8.20129119 24.42785126 7.52536653 17.9375 6.125 C17.09123047 5.95097656 16.24496094 5.77695312 15.37304688 5.59765625 C10.21410727 4.52370583 5.10387699 3.30989675 0 2 C0 1.34 0 0.68 0 0 Z " fill="#FE3B33" transform="translate(403,817)"/>
<path d="M0 0 C0.33 0 0.66 0 1 0 C1.17589374 3.51787478 0.93722088 6.23109638 0.0078125 9.65234375 C-1.15883941 14.16028672 -1.29719795 18.42530111 -1.25 23.0625 C-1.26160156 24.2081543 -1.26160156 24.2081543 -1.2734375 25.37695312 C-1.25664294 30.28516185 -0.55813395 34.34414736 1 39 C-2.82419537 36.53277718 -2.82419537 36.53277718 -3.61621094 34.13256836 C-5.55780006 23.34390362 -4.38172816 11.35544738 -1 1 C-0.67 0.67 -0.34 0.34 0 0 Z " fill="#FE382F" transform="translate(135,384)"/>
<path d="M0 0 C0.33 0 0.66 0 1 0 C1.33 2.31 1.66 4.62 2 7 C1.34 7 0.68 7 0 7 C-0.185625 8.27875 -0.37125 9.5575 -0.5625 10.875 C-1.64609226 16.31651766 -3.4701569 21.39087686 -5.4375 26.5625 C-5.73793213 27.37251465 -6.03836426 28.1825293 -6.34790039 29.01708984 C-6.6443042 29.77586426 -6.94070801 30.53463867 -7.24609375 31.31640625 C-7.64332642 32.34423218 -7.64332642 32.34423218 -8.04858398 33.39282227 C-9 35 -9 35 -12 36 C-9.60501773 28.72586074 -7.08084066 21.50147497 -4.51757812 14.28515625 C-2.8507473 9.55702176 -1.31752508 4.83748013 0 0 Z " fill="#FD3C33" transform="translate(894,577)"/>
<path d="M0 0 C4.11786521 0.43807077 7.71693022 1.17470973 11.625 2.5625 C14.87783164 3.70794157 17.51029437 4.33771345 21 4 C21 4.66 21 5.32 21 6 C22.13888672 6.16435547 22.13888672 6.16435547 23.30078125 6.33203125 C24.29464844 6.49058594 25.28851562 6.64914063 26.3125 6.8125 C27.79169922 7.03873047 27.79169922 7.03873047 29.30078125 7.26953125 C32.12699269 8.03436705 33.1959128 8.75258762 35 11 C28.54668399 10.38036076 22.59198102 8.93534249 16.375 7.125 C15.45976563 6.86847656 14.54453125 6.61195313 13.6015625 6.34765625 C8.77656895 4.96012198 4.39338732 3.43752719 0 1 C0 0.67 0 0.34 0 0 Z " fill="#FD3A32" transform="translate(649,180)"/>
<path d="M0 0 C0.66 0 1.32 0 2 0 C-0.71786539 9.27271722 -4.79109686 18.18954666 -10.16015625 26.23828125 C-12.11731178 28.9139313 -12.11731178 28.9139313 -13 32 C-12.34 32.33 -11.68 32.66 -11 33 C-12.32 33 -13.64 33 -15 33 C-15.61913274 28.04693808 -13.47307748 24.98723042 -10.875 21 C-6.61802397 14.2216815 -3.1662372 7.36305357 0 0 Z " fill="#FD3B32" transform="translate(875,602)"/>
<path d="M0 0 C0.99 0.33 1.98 0.66 3 1 C2.03017954 4.64790335 1.05840392 8.29525113 0.08203125 11.94140625 C-0.57715139 14.40509415 -1.22502288 16.87056363 -1.86328125 19.33984375 C-2.11464844 20.30019531 -2.36601562 21.26054687 -2.625 22.25 C-2.84414062 23.10078125 -3.06328125 23.9515625 -3.2890625 24.828125 C-4 27 -4 27 -6 30 C-5.52224666 24.2872899 -4.98884784 18.65055911 -4 13 C-4 12.01 -4 11.02 -4 10 C-3.34 9.01 -2.68 8.02 -2 7 C-1.29187186 4.67891331 -0.61975848 2.34622853 0 0 Z " fill="#FE4036" transform="translate(169,353)"/>
<path d="M0 0 C0.33 0.66 0.66 1.32 1 2 C-0.30349135 4.57094146 -1.66065658 7.02279316 -3.125 9.5 C-3.96146591 10.94685996 -4.79610534 12.3947774 -5.62890625 13.84375 C-6.03641113 14.55144531 -6.44391602 15.25914062 -6.86376953 15.98828125 C-9.07731405 19.90740606 -11.05827719 23.94092117 -13 28 C-13.66 28 -14.32 28 -15 28 C-14.46517379 23.71396758 -13.49945409 20.59295243 -11.34765625 16.85546875 C-10.81849609 15.93185547 -10.28933594 15.00824219 -9.74414062 14.05664062 C-9.18919922 13.10982422 -8.63425781 12.16300781 -8.0625 11.1875 C-7.23588867 9.73827148 -7.23588867 9.73827148 -6.39257812 8.25976562 C-2.27271534 1.13635767 -2.27271534 1.13635767 0 0 Z " fill="#FE4036" transform="translate(184,308)"/>
<path d="M0 0 C0.66 0.99 1.32 1.98 2 3 C1.3756905 5.66803967 0.66988193 8.06281579 -0.25 10.625 C-0.48074219 11.31851562 -0.71148437 12.01203125 -0.94921875 12.7265625 C-2.72467164 17.86233582 -2.72467164 17.86233582 -5 19 C-4.835 17.906875 -4.67 16.81375 -4.5 15.6875 C-3.93281816 12.12474127 -3.93281816 12.12474127 -4 9 C-5.32 10.32 -6.64 11.64 -8 13 C-7.3547078 10.06984666 -6.4319105 7.51243525 -5.125 4.8125 C-4.79757813 4.11769531 -4.47015625 3.42289062 -4.1328125 2.70703125 C-3 1 -3 1 0 0 Z " fill="#FE433A" transform="translate(176,333)"/>
<path d="M0 0 C-4.2607899 3.45707501 -9.09307342 5.89399773 -13.89257812 8.5078125 C-18.50954268 11.05871818 -22.75846015 13.86181496 -27 17 C-27.66 16.67 -28.32 16.34 -29 16 C-25.6374939 12.24391813 -21.87283518 9.93606184 -17.5625 7.4375 C-16.90701172 7.05142578 -16.25152344 6.66535156 -15.57617188 6.26757812 C-14.30078594 5.51667387 -13.02326651 4.76937884 -11.7434082 4.02612305 C-10.21228793 3.12494695 -8.70545332 2.18277221 -7.203125 1.234375 C-4.61367283 -0.21645281 -2.92293291 -0.25053711 0 0 Z " fill="#FE3A31" transform="translate(298,195)"/>
<path d="M0 0 C2.37874045 2.15425945 3.67571253 4.07795536 4.9375 7.01953125 C5.27523437 7.79490234 5.61296875 8.57027344 5.9609375 9.36914062 C6.30382812 10.17544922 6.64671875 10.98175781 7 11.8125 C7.68620753 13.40290203 8.37368327 14.99275754 9.0625 16.58203125 C9.38734375 17.33822754 9.7121875 18.09442383 10.046875 18.87353516 C10.89542862 20.76669653 11.84744725 22.61270672 12.8125 24.44921875 C13.204375 25.29097656 13.59625 26.13273438 14 27 C13.67 27.66 13.34 28.32 13 29 C8.72935983 24.39632826 6.639257 19.08742552 4.25 13.375 C3.83878906 12.42109375 3.42757812 11.4671875 3.00390625 10.484375 C0 3.39874896 0 3.39874896 0 0 Z " fill="#FD3A31" transform="translate(152,617)"/>
<path d="M0 0 C0.66 0 1.32 0 2 0 C0.32598022 3.95677402 -2.13149285 6.84464213 -5 10 C-5.66 10 -6.32 10 -7 10 C-7.25523437 10.57234375 -7.51046875 11.1446875 -7.7734375 11.734375 C-9.13087159 14.24173733 -10.71974104 16.1330456 -12.625 18.25 C-13.25664062 18.95640625 -13.88828125 19.6628125 -14.5390625 20.390625 C-15.02117187 20.92171875 -15.50328125 21.4528125 -16 22 C-16.66 21.67 -17.32 21.34 -18 21 C-15.38073074 16.70439842 -12.49359304 13.36492153 -8.875 9.87890625 C-6.23495595 7.23336211 -3.8649288 4.37944502 -1.48046875 1.50390625 C-0.99191406 1.00761719 -0.50335938 0.51132813 0 0 Z " fill="#FD3F35" transform="translate(231,240)"/>
<path d="M0 0 C-2.69384518 2.69384518 -4.90439125 2.76703211 -8.625 3.5 C-12.65374517 4.3131791 -16.65388806 5.12703261 -20.625 6.1875 C-24 7 -24 7 -28 7 C-28 6.34 -28 5.68 -28 5 C-26.68 5 -25.36 5 -24 5 C-23.67 4.34 -23.34 3.68 -23 3 C-20.63127339 2.34882421 -18.34541515 1.82484926 -15.9375 1.375 C-15.2580835 1.24311279 -14.57866699 1.11122559 -13.87866211 0.9753418 C-9.15063109 0.10116181 -4.7868135 -0.29307021 0 0 Z " fill="#FE3B33" transform="translate(400,157)"/>
<path d="M0 0 C0.33 0 0.66 0 1 0 C1.28941121 6.5269845 0.26437479 12.13327504 -1.375 18.4375 C-1.59671875 19.34693359 -1.8184375 20.25636719 -2.046875 21.19335938 C-3.30930907 26.16512177 -3.30930907 26.16512177 -4 28 C-4.66 28.33 -5.32 28.66 -6 29 C-5.40390686 22.26483263 -4.14905977 15.97211055 -2.4375 9.4375 C-2.20353516 8.52419922 -1.96957031 7.61089844 -1.72851562 6.66992188 C-1.15776375 4.44515436 -0.58152522 2.22197103 0 0 Z " fill="#FE3930" transform="translate(872,569)"/>
<path d="M0 0 C1.02879148 2.67485785 0.9802834 4.09266804 0.375 6.9375 C-1.20970294 10.46706564 -3.1777839 12.38945011 -6 15 C-6.99 16.485 -6.99 16.485 -8 18 C-8.66 18 -9.32 18 -10 18 C-10 18.66 -10 19.32 -10 20 C-11.65 20.33 -13.3 20.66 -15 21 C-14.01 19.515 -14.01 19.515 -13 18 C-12.34 18 -11.68 18 -11 18 C-10.7421875 17.443125 -10.484375 16.88625 -10.21875 16.3125 C-8.36152329 12.78853137 -5.97928827 9.66612946 -3.65625 6.4375 C-2.22927864 4.33742894 -1.06439436 2.29909181 0 0 Z " fill="#FC3D34" transform="translate(881,614)"/>
<path d="M0 0 C2.86539653 0.73525571 5.73210232 1.46434586 8.6015625 2.18359375 C11 3 11 3 12 5 C3.81911794 4.4533512 -4.01785939 2.82876132 -12 1 C-12 0.67 -12 0.34 -12 0 C-10.56359829 -0.19573608 -9.12580496 -0.38127816 -7.6875 -0.5625 C-6.88699219 -0.66691406 -6.08648438 -0.77132812 -5.26171875 -0.87890625 C-3 -1 -3 -1 0 0 Z " fill="#FD3D35" transform="translate(616,169)"/>
<path d="M0 0 C0 0.66 0 1.32 0 2 C-2.68421327 2.8454215 -5.37156768 3.67647233 -8.0625 4.5 C-9.19075195 4.85771484 -9.19075195 4.85771484 -10.34179688 5.22265625 C-15.07832621 6.65796817 -19.05218166 7.26283232 -24 7 C-21.37562161 5.25041441 -19.81796628 4.5251318 -16.875 3.7109375 C-16.08609375 3.49179687 -15.2971875 3.27265625 -14.484375 3.046875 C-13.66453125 2.82515625 -12.8446875 2.6034375 -12 2.375 C-11.18015625 2.14554688 -10.3603125 1.91609375 -9.515625 1.6796875 C-3.39676339 0 -3.39676339 0 0 0 Z " fill="#FD3A32" transform="translate(648,813)"/>
<path d="M0 0 C0.33 0 0.66 0 1 0 C2.19388403 22.59489033 2.19388403 22.59489033 2 33 C1.01 33.495 1.01 33.495 0 34 C-1.37448837 22.60231949 -0.71442552 11.42270824 0 0 Z " fill="#FE322C" transform="translate(586,707)"/>
<path d="M0 0 C2.17142404 2.17142404 2.60299758 3.36732977 3.5078125 6.24609375 C3.77207031 7.08333984 4.03632813 7.92058594 4.30859375 8.78320312 C4.57800781 9.65912109 4.84742188 10.53503906 5.125 11.4375 C5.40214844 12.30955078 5.67929688 13.18160156 5.96484375 14.08007812 C8 20.60160099 8 20.60160099 8 24 C7.34 24 6.68 24 6 24 C4.98867084 21.12854755 3.99075598 18.25354777 3 15.375 C2.71382812 14.56675781 2.42765625 13.75851562 2.1328125 12.92578125 C0.61093475 8.46885356 -0.37123303 4.77962528 0 0 Z " fill="#FD3B31" transform="translate(144,592)"/>
<path d="M0 0 C2.53494918 3.80242376 3.13181134 6.60090298 3.09765625 11.109375 C3.09443359 11.86347656 3.09121094 12.61757813 3.08789062 13.39453125 C3.07951172 14.17183594 3.07113281 14.94914062 3.0625 15.75 C3.05798828 16.54277344 3.05347656 17.33554687 3.04882812 18.15234375 C3.03708565 20.10159508 3.01915146 22.05080738 3 24 C1.27428639 20.98454253 0.71902341 18.6946087 0.5859375 15.234375 C0.54726563 14.34492188 0.50859375 13.45546875 0.46875 12.5390625 C0.4378125 11.61867188 0.406875 10.69828125 0.375 9.75 C0.33632813 8.81414062 0.29765625 7.87828125 0.2578125 6.9140625 C0.16375156 4.60956946 0.07810601 2.30507987 0 0 Z " fill="#FE352E" transform="translate(877,440)"/>
<path d="M0 0 C0.33 0 0.66 0 1 0 C1.33931227 2.66602496 1.67157176 5.33263014 2 8 C2.14308594 9.11568359 2.14308594 9.11568359 2.2890625 10.25390625 C2.89227676 15.20888051 3.09075591 20.00842496 3 25 C-0.125 18.75 -0.125 18.75 -0.09765625 14.6484375 C-0.09443359 13.79765625 -0.09121094 12.946875 -0.08789062 12.0703125 C-0.07951172 11.18085937 -0.07113281 10.29140625 -0.0625 9.375 C-0.05798828 8.4778125 -0.05347656 7.580625 -0.04882812 6.65625 C-0.03702591 4.43743352 -0.02056155 2.21874982 0 0 Z " fill="#FE372E" transform="translate(134,533)"/>
<path d="M0 0 C-2.83443922 2.83443922 -6.25213519 3.49801967 -10 4.625 C-10.73734375 4.85445312 -11.4746875 5.08390625 -12.234375 5.3203125 C-17.71335565 7 -17.71335565 7 -20 7 C-20 6.34 -20 5.68 -20 5 C-17.79567015 4.15450362 -15.58751467 3.32357186 -13.375 2.5 C-11.53035156 1.80390625 -11.53035156 1.80390625 -9.6484375 1.09375 C-6.18957134 0.05683081 -3.57814964 -0.22019382 0 0 Z " fill="#FE3A31" transform="translate(371,164)"/>
<path d="M0 0 C0.99 0.33 1.98 0.66 3 1 C0.71046156 2.98167622 -1.58149798 4.96042047 -3.875 6.9375 C-4.85146484 7.78344727 -4.85146484 7.78344727 -5.84765625 8.64648438 C-6.47285156 9.18466797 -7.09804687 9.72285156 -7.7421875 10.27734375 C-8.3182373 10.77484131 -8.89428711 11.27233887 -9.48779297 11.78491211 C-11 13 -11 13 -13 14 C-12.73785556 10.70777428 -11.77825288 9.77858384 -9.3828125 7.38671875 C-8.30509645 6.47714759 -7.21880552 5.57765789 -6.125 4.6875 C-5.58230469 4.22021484 -5.03960937 3.75292969 -4.48046875 3.27148438 C-2.8828125 1.94921875 -2.8828125 1.94921875 0 0 Z " fill="#FE3B31" transform="translate(247,226)"/>
<path d="M0 0 C0.71484375 1.578125 0.71484375 1.578125 1 4 C-0.05709499 6.38494456 -1.1317889 8.51234067 -2.4375 10.75 C-2.77587891 11.35199219 -3.11425781 11.95398438 -3.46289062 12.57421875 C-4.29768265 14.05568065 -5.14741494 15.52870608 -6 17 C-6.33 17 -6.66 17 -7 17 C-7 14.69 -7 12.38 -7 10 C-6.34 10 -5.68 10 -5 10 C-4.731875 9.278125 -4.46375 8.55625 -4.1875 7.8125 C-3.01017502 5.02409874 -1.60854116 2.55904276 0 0 Z " fill="#FE4339" transform="translate(167,337)"/>
<path d="M0 0 C6.91663627 1.09890483 13.42736799 2.56569185 20 5 C20 5.33 20 5.66 20 6 C12.96871122 5.56615452 6.670985 4.25678003 0 2 C0 1.34 0 0.68 0 0 Z " fill="#FE372F" transform="translate(382,811)"/>
<path d="M0 0 C0.56460937 0.23074219 1.12921875 0.46148437 1.7109375 0.69921875 C-0.0363169 1.99459701 -1.78697767 3.28538148 -3.5390625 4.57421875 C-4.51359375 5.29351562 -5.488125 6.0128125 -6.4921875 6.75390625 C-8.72808404 8.309041 -10.81778743 9.58126098 -13.2890625 10.69921875 C-11.8219452 7.14185368 -9.9184206 5.25726708 -6.9140625 2.88671875 C-6.14320313 2.26152344 -5.37234375 1.63632813 -4.578125 0.9921875 C-2.2890625 -0.30078125 -2.2890625 -0.30078125 0 0 Z " fill="#FD3B31" transform="translate(264.2890625,214.30078125)"/>
<path d="M0 0 C0.556875 0.391875 1.11375 0.78375 1.6875 1.1875 C0.57375 1.579375 -0.54 1.97125 -1.6875 2.375 C-4.28837056 3.50763718 -5.14031492 3.91356919 -6.6875 6.375 C-7.48785141 9.97658136 -7.93910655 13.51579771 -8.3125 17.1875 C-8.6425 17.1875 -8.9725 17.1875 -9.3125 17.1875 C-10.4720285 11.17903412 -10.54061481 7.67529518 -7.3125 2.1875 C-3.34027778 -1.17361111 -3.34027778 -1.17361111 0 0 Z " fill="#FE443B" transform="translate(334.3125,264.8125)"/>
<path d="M0 0 C6.59904729 1.52785824 12.87389209 3.07617577 19 6 C19 6.33 19 6.66 19 7 C12.51590363 6.51969656 6.80816053 5.00031684 1 2 C0.67 1.34 0.34 0.68 0 0 Z " fill="#FD352D" transform="translate(362,804)"/>
<path d="M0 0 C5.27315333 0.4452885 10.01770224 1.08373163 15 3 C15 3.66 15 4.32 15 5 C9.86496656 4.35812082 5.0056546 3.31727753 0 2 C0 1.34 0 0.68 0 0 Z " fill="#FE3A32" transform="translate(633,175)"/>
<path d="M0 0 C1.32 1.32 2.64 2.64 4 4 C3.67 4.66 3.34 5.32 3 6 C1.68 5.01 0.36 4.02 -1 3 C-1 3.99 -1 4.98 -1 6 C-1.66 6 -2.32 6 -3 6 C-3 8.64 -3 11.28 -3 14 C-3.33 14 -3.66 14 -4 14 C-4.63019694 4.82713348 -4.63019694 4.82713348 -2 1.375 C-1.34 0.92125 -0.68 0.4675 0 0 Z " fill="#FE4439" transform="translate(136,469)"/>
<path d="M0 0 C0 0.66 0 1.32 0 2 C-9.41002278 6.40774487 -9.41002278 6.40774487 -14 7 C-14 6.34 -14 5.68 -14 5 C-12.421924 4.15675328 -10.8372958 3.32576082 -9.25 2.5 C-8.36828125 2.0359375 -7.4865625 1.571875 -6.578125 1.09375 C-4 0 -4 0 0 0 Z " fill="#FD3C33" transform="translate(313,187)"/>
<path d="M0 0 C0 0.66 0 1.32 0 2 C-1.8253125 2.6496875 -1.8253125 2.6496875 -3.6875 3.3125 C-7.03739367 4.56201629 -9.99997817 6.03123567 -13 8 C-13.33 7.01 -13.66 6.02 -14 5 C-12.421924 4.15675328 -10.8372958 3.32576082 -9.25 2.5 C-8.36828125 2.0359375 -7.4865625 1.571875 -6.578125 1.09375 C-4 0 -4 0 0 0 Z " fill="#FD3E34" transform="translate(329,179)"/>
<path d="M0 0 C0.33 0 0.66 0 1 0 C1.73030908 6.21324498 2.23180249 11.84098757 1 18 C-1.23920243 14.64119635 -1.24603334 13.48423396 -1.1875 9.5625 C-1.18105469 8.61503906 -1.17460937 7.66757812 -1.16796875 6.69140625 C-1.01959281 4.3139406 -0.67263878 2.27620963 0 0 Z " fill="#FE362D" transform="translate(149,366)"/>
<path d="M0 0 C4.81075606 -0.19243024 8.54023951 0.13312351 13 2 C13.66 2.66 14.32 3.32 15 4 C4.44191344 3.22095672 4.44191344 3.22095672 0 1 C0 0.67 0 0.34 0 0 Z " fill="#FE3C33" transform="translate(587,165)"/>
<path d="M0 0 C0.66 0.99 1.32 1.98 2 3 C1.24640995 6.01436022 0.3623389 7.64973906 -1.875 9.8125 C-4 11 -4 11 -8 11 C-8 10.34 -8 9.68 -8 9 C-7.21625 8.71125 -6.4325 8.4225 -5.625 8.125 C-2.90328368 7.15087746 -2.90328368 7.15087746 -1 5 C-0.35232207 2.42938689 -0.35232207 2.42938689 0 0 Z " fill="#FE4039" transform="translate(585,738)"/>
<path d="M0 0 C0.33 0 0.66 0 1 0 C0.46148032 5.27749285 -0.77343836 9.25645564 -3 14 C-4.09362142 10.74829897 -3.93111886 9.02646111 -2.625 5.875 C-2.34914062 5.19179688 -2.07328125 4.50859375 -1.7890625 3.8046875 C-1.22762922 2.52061734 -0.62674453 1.25348905 0 0 Z " fill="#FE342A" transform="translate(175,338)"/>
<path d="M0 0 C0.33 0 0.66 0 1 0 C1.46192125 4.92715996 -0.1724717 8.50732625 -2 13 C-2.66 13 -3.32 13 -4 13 C-3.50269348 8.02693484 -2.44697666 4.36200187 0 0 Z " fill="#FE3C33" transform="translate(881,588)"/>
<path d="M0 0 C0.33 0 0.66 0 1 0 C1 5.28 1 10.56 1 16 C0.34 16.33 -0.32 16.66 -1 17 C-1.33 14.03 -1.66 11.06 -2 8 C-1.34 8 -0.68 8 0 8 C0 5.36 0 2.72 0 0 Z " fill="#FE3D37" transform="translate(580,464)"/>
<path d="M0 0 C0 1.33333333 0 2.66666667 0 4 C0.99 4.33 1.98 4.66 3 5 C1.3125 6.5625 1.3125 6.5625 -1 8 C-3.75 7.6875 -3.75 7.6875 -6 7 C-4.02 4.69 -2.04 2.38 0 0 Z " fill="#F94941" transform="translate(224,238)"/>
<path d="M0 0 C4.62 0 9.24 0 14 0 C10.3750203 1.81248985 8.62740416 2.31888915 4.75 2.625 C3.85796875 2.69976562 2.9659375 2.77453125 2.046875 2.8515625 C1.37140625 2.90054688 0.6959375 2.94953125 0 3 C0 2.01 0 1.02 0 0 Z " fill="#FD3B32" transform="translate(414,153)"/>
<path d="M0 0 C-0.66 2.97 -1.32 5.94 -2 9 C-2.33 8.01 -2.66 7.02 -3 6 C-3.99 5.67 -4.98 5.34 -6 5 C-4.87312259 1.61936778 -3.78825335 0 0 0 Z " fill="#F9453B" transform="translate(157,344)"/>
<path d="M0 0 C0.66 0 1.32 0 2 0 C2.391875 0.94875 2.78375 1.8975 3.1875 2.875 C5.19793856 6.34127338 6.22699642 6.9802693 10 8 C9.01 8.66 8.02 9.32 7 10 C3.73539027 8.19587357 2.11070205 7.16605307 0 4 C0 2.68 0 1.36 0 0 Z " fill="#FE3D35" transform="translate(325,411)"/>
<path d="M0 0 C2.33486745 3.64823039 2.30399283 6.74410043 2 11 C0.984375 13.21875 0.984375 13.21875 0 15 C-1.33257403 4.44191344 -1.33257403 4.44191344 0 0 Z " fill="#FE362D" transform="translate(893,521)"/>
<path d="M0 0 C0.33 0 0.66 0 1 0 C1.16682272 4.92127034 1.24828052 8.50343896 -1 13 C-1.33 13 -1.66 13 -2 13 C-1.85851011 11.3954444 -1.71164314 9.79136233 -1.5625 8.1875 C-1.48128906 7.29417969 -1.40007813 6.40085937 -1.31640625 5.48046875 C-1 3 -1 3 0 0 Z " fill="#FD3C33" transform="translate(897,563)"/>
<path d="M0 0 C-1.26691507 0.67408308 -2.53870749 1.33900497 -3.8125 2 C-4.52019531 2.37125 -5.22789062 2.7425 -5.95703125 3.125 C-8 4 -8 4 -11 4 C-11 3.34 -11 2.68 -11 2 C-4.03571429 -1.34821429 -4.03571429 -1.34821429 0 0 Z " fill="#FE382F" transform="translate(341,175)"/>
<path d="M0 0 C0.99 0.99 1.98 1.98 3 3 C2.73897585 6.48032201 1.96602468 8.05096298 0 11 C0 7.37 0 3.74 0 0 Z " fill="#FE3C35" transform="translate(430,704)"/>
<path d="M0 0 C1.0625 1.875 1.0625 1.875 2 4 C1.67 4.66 1.34 5.32 1 6 C0.9310528 7.37342831 0.91532292 8.75002102 0.9375 10.125 C0.958125 11.40375 0.97875 12.6825 1 14 C0.34 14 -0.32 14 -1 14 C-1.027193 12.41676312 -1.04648306 10.83338938 -1.0625 9.25 C-1.07410156 8.36828125 -1.08570313 7.4865625 -1.09765625 6.578125 C-1.00826198 4.2181162 -0.66912821 2.25501476 0 0 Z " fill="#FE584E" transform="translate(160,372)"/>
<path d="M0 0 C1.32 0.66 2.64 1.32 4 2 C4 3.65 4 5.3 4 7 C3.34 6.01 2.68 5.02 2 4 C-0.05003955 2.80767387 -0.05003955 2.80767387 -2 2 C-1.34 1.34 -0.68 0.68 0 0 Z " fill="#FC3932" transform="translate(896,489)"/>
<path d="M0 0 C3.16115776 1.36983503 3.9927092 1.9890638 6 5 C6 5.99 6 6.98 6 8 C5.34 8 4.68 8 4 8 C2.66666667 5.33333333 1.33333333 2.66666667 0 0 Z " fill="#FD362C" transform="translate(431,423)"/>
<path d="M0 0 C1.98 0 3.96 0 6 0 C6 0.33 6 0.66 6 1 C4.02 1 2.04 1 0 1 C0 0.67 0 0.34 0 0 Z " fill="#F55B52" transform="translate(408,152)"/>
<path d="" fill="#FA5A51" transform="translate(0,0)"/>
<path d="" fill="#F85C53" transform="translate(0,0)"/>
<path d="M0 0 C0.33 0.66 0.66 1.32 1 2 C0.34 1.67 -0.32 1.34 -1 1 C-0.67 0.67 -0.34 0.34 0 0 Z " fill="#F25C53" transform="translate(239,230)"/>
<path d="M0 0 C3 1 3 1 3 1 Z " fill="#F55850" transform="translate(531,152)"/>
<path d="M0 0 C2 1 2 1 2 1 Z " fill="#F6574D" transform="translate(542,834)"/>
<path d="M0 0 C2 1 2 1 2 1 Z " fill="#F8554F" transform="translate(225,725)"/>
<path d="" fill="#FA594F" transform="translate(0,0)"/>
<path d="" fill="#FE5950" transform="translate(0,0)"/>
<path d="" fill="#FA5950" transform="translate(0,0)"/>
<path d="" fill="#FF5851" transform="translate(0,0)"/>
<path d="" fill="#FC5950" transform="translate(0,0)"/>
<path d="" fill="#FA584F" transform="translate(0,0)"/>
<path d="" fill="#FC5B53" transform="translate(0,0)"/>
<path d="" fill="#FF5850" transform="translate(0,0)"/>
<path d="" fill="#F1564D" transform="translate(0,0)"/>
<path d="" fill="#EC5953" transform="translate(0,0)"/>
<path d="M0 0 C2 1 2 1 2 1 Z " fill="#F7594F" transform="translate(328,176)"/>
<path d="M0 0 C2 1 2 1 2 1 Z " fill="#FA594F" transform="translate(591,163)"/>
<path d="" fill="#51221B" transform="translate(0,0)"/>
<path d="" fill="#F8574E" transform="translate(0,0)"/>
<path d="" fill="#F8594E" transform="translate(0,0)"/>
<path d="" fill="#FD584F" transform="translate(0,0)"/>
<path d="" fill="#F7584E" transform="translate(0,0)"/>
<path d="" fill="#F9564E" transform="translate(0,0)"/>
<path d="" fill="#FB564F" transform="translate(0,0)"/>
<path d="" fill="#F8584C" transform="translate(0,0)"/>
<path d="" fill="#FA554E" transform="translate(0,0)"/>
<path d="" fill="#F8564C" transform="translate(0,0)"/>
<path d="" fill="#F7544C" transform="translate(0,0)"/>
<path d="" fill="#F6554D" transform="translate(0,0)"/>
<path d="" fill="#F85850" transform="translate(0,0)"/>
<path d="" fill="#FF5A51" transform="translate(0,0)"/>
<path d="" fill="#FF5A53" transform="translate(0,0)"/>
<path d="" fill="#FE5A51" transform="translate(0,0)"/>
<path d="" fill="#FD5850" transform="translate(0,0)"/>
<path d="" fill="#FC594F" transform="translate(0,0)"/>
<path d="" fill="#F7564C" transform="translate(0,0)"/>
<path d="" fill="#F7564F" transform="translate(0,0)"/>
<path d="" fill="#F5594E" transform="translate(0,0)"/>
<path d="" fill="#F5544D" transform="translate(0,0)"/>
<path d="" fill="#FF5951" transform="translate(0,0)"/>
<path d="" fill="#F65850" transform="translate(0,0)"/>
<path d="" fill="#FE5B52" transform="translate(0,0)"/>
<path d="" fill="#FA564C" transform="translate(0,0)"/>
<path d="" fill="#FF5B53" transform="translate(0,0)"/>
<path d="" fill="#F3574E" transform="translate(0,0)"/>
<path d="" fill="#F75850" transform="translate(0,0)"/>
<path d="" fill="#F95B52" transform="translate(0,0)"/>
<path d="" fill="#FE5C54" transform="translate(0,0)"/>
<path d="" fill="#FC5B53" transform="translate(0,0)"/>
<path d="" fill="#FD5A52" transform="translate(0,0)"/>
<path d="" fill="#FC574F" transform="translate(0,0)"/>
<path d="" fill="#F5564E" transform="translate(0,0)"/>
<path d="" fill="#F85A53" transform="translate(0,0)"/>
<path d="" fill="#FD5C53" transform="translate(0,0)"/>
<path d="" fill="#FC5951" transform="translate(0,0)"/>
<path d="" fill="#F85950" transform="translate(0,0)"/>
<path d="" fill="#FE584F" transform="translate(0,0)"/>
<path d="" fill="#FF5A53" transform="translate(0,0)"/>
<path d="" fill="#FA584F" transform="translate(0,0)"/>
<path d="" fill="#F95A50" transform="translate(0,0)"/>
<path d="" fill="#FF5950" transform="translate(0,0)"/>
<path d="" fill="#FF5D54" transform="translate(0,0)"/>
<path d="" fill="#FF5B52" transform="translate(0,0)"/>
<path d="" fill="#FA5C52" transform="translate(0,0)"/>
<path d="" fill="#F75C54" transform="translate(0,0)"/>
<path d="" fill="#FC5C52" transform="translate(0,0)"/>
<path d="" fill="#FA574F" transform="translate(0,0)"/>
<path d="" fill="#FE5A54" transform="translate(0,0)"/>
<path d="" fill="#FE5A52" transform="translate(0,0)"/>
<path d="" fill="#FC5952" transform="translate(0,0)"/>
<path d="" fill="#F85C53" transform="translate(0,0)"/>
<path d="" fill="#FA5D53" transform="translate(0,0)"/>
<path d="" fill="#FB5B51" transform="translate(0,0)"/>
<path d="" fill="#F95D54" transform="translate(0,0)"/>
<path d="" fill="#FB5A50" transform="translate(0,0)"/>
<path d="" fill="#FA5D51" transform="translate(0,0)"/>
<path d="" fill="#FE5750" transform="translate(0,0)"/>
<path d="" fill="#F95C53" transform="translate(0,0)"/>
<path d="" fill="#FC5851" transform="translate(0,0)"/>
<path d="" fill="#FA5550" transform="translate(0,0)"/>
<path d="" fill="#FC5950" transform="translate(0,0)"/>
<path d="" fill="#FC5851" transform="translate(0,0)"/>
<path d="" fill="#F75B51" transform="translate(0,0)"/>
<path d="" fill="#FC5B52" transform="translate(0,0)"/>
<path d="" fill="#F65B50" transform="translate(0,0)"/>
<path d="" fill="#F95B51" transform="translate(0,0)"/>
<path d="" fill="#FD5B50" transform="translate(0,0)"/>
<path d="" fill="#F65A50" transform="translate(0,0)"/>
<path d="" fill="#FF5850" transform="translate(0,0)"/>
<path d="" fill="#FF5751" transform="translate(0,0)"/>
<path d="" fill="#FE5951" transform="translate(0,0)"/>
<path d="" fill="#F85C50" transform="translate(0,0)"/>
<path d="" fill="#FD5C53" transform="translate(0,0)"/>
<path d="" fill="#FF584D" transform="translate(0,0)"/>
<path d="" fill="#FE5D54" transform="translate(0,0)"/>
<path d="" fill="#FE5A53" transform="translate(0,0)"/>
<path d="" fill="#FE5A51" transform="translate(0,0)"/>
<path d="" fill="#F6564E" transform="translate(0,0)"/>
<path d="" fill="#FA5A50" transform="translate(0,0)"/>
<path d="" fill="#F85B53" transform="translate(0,0)"/>
<path d="" fill="#F65951" transform="translate(0,0)"/>
<path d="" fill="#FF5851" transform="translate(0,0)"/>
<path d="" fill="#F85C52" transform="translate(0,0)"/>
<path d="" fill="#FE5751" transform="translate(0,0)"/>
<path d="" fill="#FF5850" transform="translate(0,0)"/>
<path d="" fill="#F85B53" transform="translate(0,0)"/>
<path d="" fill="#F65952" transform="translate(0,0)"/>
<path d="" fill="#FE5950" transform="translate(0,0)"/>
<path d="" fill="#F75D56" transform="translate(0,0)"/>
<path d="" fill="#F45D52" transform="translate(0,0)"/>
<path d="" fill="#F3584F" transform="translate(0,0)"/>
<path d="" fill="#F3594F" transform="translate(0,0)"/>
<path d="" fill="#F55B50" transform="translate(0,0)"/>
<path d="" fill="#FF5851" transform="translate(0,0)"/>
<path d="" fill="#FF5A50" transform="translate(0,0)"/>
<path d="" fill="#FD5B52" transform="translate(0,0)"/>
<path d="" fill="#FD5C53" transform="translate(0,0)"/>
<path d="" fill="#FD5C54" transform="translate(0,0)"/>
<path d="" fill="#FD5D53" transform="translate(0,0)"/>
<path d="" fill="#F9584F" transform="translate(0,0)"/>
<path d="" fill="#EB5951" transform="translate(0,0)"/>
<path d="" fill="#F25B52" transform="translate(0,0)"/>
<path d="" fill="#F3574D" transform="translate(0,0)"/>
<path d="" fill="#F75950" transform="translate(0,0)"/>
<path d="" fill="#F3574F" transform="translate(0,0)"/>
<path d="" fill="#F45B52" transform="translate(0,0)"/>
<path d="" fill="#F5584E" transform="translate(0,0)"/>
<path d="" fill="#F85E54" transform="translate(0,0)"/>
<path d="" fill="#F65A4E" transform="translate(0,0)"/>
<path d="" fill="#F95A51" transform="translate(0,0)"/>
<path d="" fill="#F95951" transform="translate(0,0)"/>
<path d="" fill="#F3564F" transform="translate(0,0)"/>
<path d="" fill="#F65C52" transform="translate(0,0)"/>
<path d="" fill="#F85952" transform="translate(0,0)"/>
<path d="" fill="#F95C52" transform="translate(0,0)"/>
</svg>
